<svg width="1200" height="630" viewBox="0 0 1200 630" fill="none" xmlns="http://www.w3.org/2000/svg">
  <rect width="1200" height="630" fill="#050505"/>
  
  <!-- Background gradient -->
  <defs>
    <linearGradient id="bg" x1="0%" y1="0%" x2="100%" y2="100%">
      <stop offset="0%" style="stop-color:#0a0a0a"/>
      <stop offset="100%" style="stop-color:#050505"/>
    </linearGradient>
    <linearGradient id="accent" x1="0%" y1="0%" x2="100%" y2="0%">
      <stop offset="0%" style="stop-color:#6366f1"/>
      <stop offset="100%" style="stop-color:#8b5cf6"/>
    </linearGradient>
  </defs>
  
  <rect width="1200" height="630" fill="url(#bg)"/>
  
  <!-- Grid lines -->
  <g stroke="#ffffff" stroke-opacity="0.03" stroke-width="1">
    <line x1="0" y1="157" x2="1200" y2="157"/>
    <line x1="0" y1="315" x2="1200" y2="315"/>
    <line x1="0" y1="472" x2="1200" y2="472"/>
    <line x1="300" y1="0" x2="300" y2="630"/>
    <line x1="600" y1="0" x2="600" y2="630"/>
    <line x1="900" y1="0" x2="900" y2="630"/>
  </g>
  
  <!-- Accent line -->
  <rect x="80" y="180" width="80" height="4" fill="url(#accent)"/>
  
  <!-- Logo mark -->
  <text x="80" y="260" font-family="Arial, sans-serif" font-size="48" font-weight="bold" fill="#ffffff">SHIBUYA</text>
  <text x="80" y="310" font-family="Arial, sans-serif" font-size="24" font-weight="400" fill="#888888">ANALYTICS</text>
  
  <!-- Tagline -->
  <text x="80" y="420" font-family="Georgia, serif" font-size="42" font-style="italic" fill="#ffffff">Your Psychology Is</text>
  <text x="80" y="480" font-family="Georgia, serif" font-size="42" font-style="italic" fill="url(#accent)">A Balance Sheet</text>
  
  <!-- Stats preview -->
  <g fill="#ffffff" font-family="Arial, sans-serif">
    <rect x="700" y="180" width="420" height="300" rx="12" fill="#0f0f0f" stroke="#ffffff" stroke-opacity="0.1"/>
    <text x="740" y="230" font-size="14" fill="#888888">DISCIPLINE TAX</text>
    <text x="740" y="270" font-size="36" font-weight="bold" fill="#ef4444">-€2,340</text>
    <text x="740" y="330" font-size="14" fill="#888888">EDGE PORTFOLIO</text>
    <text x="740" y="370" font-size="24" fill="#22c55e">3 PRIME</text>
    <text x="880" y="370" font-size="24" fill="#f59e0b">2 STABLE</text>
    <text x="740" y="430" font-size="14" fill="#888888">RUIN PROBABILITY</text>
    <text x="740" y="460" font-size="24" fill="#ffffff">3.4%</text>
  </g>
</svg>
